<?xml version="1.0" encoding="UTF-8" standalone="no"?><!DOCTYPE svg PUBLIC "-//W3C//DTD SVG 1.1//EN" "http://www.w3.org/Graphics/SVG/1.1/DTD/svg11.dtd"><svg width="100%" height="100%" viewBox="0 0 162 69" version="1.1" xmlns="http://www.w3.org/2000/svg" xmlns:xlink="http://www.w3.org/1999/xlink" xml:space="preserve" xmlns:serif="http://www.serif.com/" style="fill-rule:evenodd;clip-rule:evenodd;stroke-linejoin:round;stroke-miterlimit:2;"><g><path d="M83.864,29.269l-0.028,0l-0.166,1.053l12.301,-0l-0,0.554l13.464,-0.056c0.028,0.333 -0,0.721 -0.028,1.109l-26.069,-0l-0.222,1.053l12.855,-0l-0.111,0.498l13.298,0l-0.25,1.109l-10.472,-0c-0.138,-0.277 -0.415,-0.444 -0.83,-0.444c-0.444,0 -0.831,0.138 -1.164,0.444l-10.944,-0c-0.138,-0.277 -0.415,-0.444 -0.83,-0.444c-1.137,0 -1.857,0.915 -2.272,2.799l-2.355,10.804l-10.168,-0l4.682,-21.499l9.946,0l-0.637,3.02Zm11.885,0l-11.885,0c0.554,-0.637 1.108,-1.163 1.634,-1.607l9.586,0c0.277,0.444 0.499,0.97 0.665,1.607m13.492,0l-12.55,0c0.333,-0.388 0.665,-0.748 1.025,-1.052l11.109,-0.001c0.168,0.305 0.305,0.665 0.416,1.053m-23.604,6.372c-0.055,0.36 -0.139,0.803 -0.222,1.303l-0.055,0.249l9.918,-0l0.055,-0.25c0.112,-0.499 0.25,-0.942 0.389,-1.302l-10.085,0Zm-0.859,4.212l0.332,-1.58l9.919,-0.027l-0.333,1.607l-9.918,-0Zm-0.582,2.659l0.36,-1.607l9.919,0l-0.36,1.607l-9.919,-0Zm-0.581,2.659l0.36,-1.607l9.918,-0l-0.36,1.607l-9.918,0Zm-0.222,1.053l-0.332,1.524l9.918,-0l0.332,-1.552c-1.828,0 -8.533,0 -9.918,0.028m15.071,-10.084c-0.028,0.249 -0.083,0.526 -0.138,0.804l-0.056,0.249l10.084,-0l0.223,-1.053l-10.113,-0Zm-0.776,3.713l0.222,-1.053l10.084,-0l-0.221,1.053l-10.085,-0Zm-0.609,2.659l0.249,-1.053l10.085,-0l-0.222,1.053l-10.112,-0Zm-0.582,2.659l0.25,-1.052l10.084,-0l-0.222,1.052l-10.112,0Zm-0.36,1.607l-0.194,0.97l10.112,-0l0.194,-0.97l-10.112,0Zm11.331,-20.169c-0.914,-0.665 -2.106,-1.024 -3.518,-1.024c-1.386,-0 -2.715,0.36 -3.962,1.024l7.48,0Zm-13.326,0c-0.831,-0.665 -1.967,-0.997 -3.408,-0.997c-1.357,0 -2.576,0.333 -3.74,0.997l7.148,0Z" style="fill:#00798e;"/><path d="M68.114,33.647l-6.158,0.051c-0.335,-0 -3.572,0.501 -4.054,2.759c-0.3,1.405 1.14,3.563 2.828,3.512l5.98,0l-1.834,8.329c-1.192,0.351 -5.006,0.15 -6.639,-0.05c-4.353,-0.552 -8.822,-5.018 -8.406,-11.941c0.371,-5.67 4.366,-11.038 13.532,-11.038c1.509,-0 5.397,-0.15 6.584,0.05l-1.833,8.328Z" style="fill:#00798e;"/><path d="M133.993,24.732c0.903,-0 1.782,0.23 2.643,0.692c0.858,0.464 1.53,1.127 2.009,1.99c0.478,0.861 0.719,1.76 0.719,2.697c0.001,0.926 -0.235,1.816 -0.71,2.669c-0.471,0.857 -1.135,1.52 -1.986,1.992c-0.854,0.475 -1.743,0.71 -2.675,0.71c-0.932,0 -1.824,-0.235 -2.675,-0.71c-0.854,-0.472 -1.517,-1.135 -1.991,-1.992c-0.478,-0.853 -0.714,-1.743 -0.714,-2.669c0,-0.937 0.241,-1.836 0.723,-2.697c0.481,-0.863 1.153,-1.526 2.014,-1.99c0.858,-0.462 1.74,-0.692 2.643,-0.692m0,0.889c-0.757,-0 -1.491,0.195 -2.205,0.582c-0.716,0.386 -1.275,0.941 -1.679,1.658c-0.404,0.72 -0.605,1.469 -0.605,2.25c0,0.773 0.199,1.515 0.595,2.224c0.397,0.711 0.951,1.265 1.664,1.662c0.712,0.396 1.454,0.595 2.23,0.595c0.773,0 1.517,-0.199 2.229,-0.595c0.713,-0.397 1.265,-0.951 1.659,-1.662c0.394,-0.71 0.591,-1.451 0.591,-2.224c0,-0.781 -0.199,-1.53 -0.601,-2.25c-0.401,-0.717 -0.96,-1.272 -1.677,-1.658c-0.718,-0.387 -1.452,-0.581 -2.201,-0.582m-2.359,7.458l0,-5.782l1.987,-0c0.681,-0 1.172,0.051 1.476,0.158c0.304,0.107 0.545,0.294 0.727,0.559c0.179,0.268 0.269,0.55 0.269,0.849c0,0.423 -0.15,0.79 -0.451,1.104c-0.302,0.314 -0.703,0.489 -1.201,0.527c0.203,0.086 0.369,0.188 0.49,0.307c0.234,0.229 0.518,0.61 0.856,1.148l0.705,1.13l-1.139,-0l-0.514,-0.911c-0.404,-0.715 -0.727,-1.165 -0.975,-1.345c-0.17,-0.134 -0.421,-0.2 -0.749,-0.2l-0.547,0l-0,2.456l-0.934,-0Zm0.934,-3.253l1.132,0c0.541,0 0.91,-0.082 1.108,-0.243c0.197,-0.161 0.296,-0.374 0.296,-0.642c0,-0.17 -0.048,-0.323 -0.143,-0.46c-0.096,-0.133 -0.227,-0.235 -0.395,-0.301c-0.169,-0.068 -0.481,-0.1 -0.938,-0.1l-1.06,-0.001l-0,1.747Z"/><path d="M14.765,54.439l-8.645,-0l-2.033,8.724l8.645,-0l0.689,-2.96l3.055,0.663l-0.381,1.634c-0.293,1.259 -0.73,2.119 -1.312,2.572c-0.578,0.459 -1.535,0.686 -2.866,0.686l-8.226,-0c-1.34,-0 -2.191,-0.227 -2.556,-0.686c-0.361,-0.453 -0.397,-1.313 -0.103,-2.572l1.693,-7.265c0.293,-1.255 0.728,-2.109 1.304,-2.573c0.578,-0.458 1.536,-0.689 2.875,-0.689l8.226,-0.001c1.331,-0 2.181,0.232 2.546,0.69c0.369,0.464 0.405,1.318 0.113,2.573l-0.304,1.304l-3.328,0.508l0.608,-2.608Zm6.073,0.796c0.293,-1.255 0.728,-2.109 1.303,-2.573c0.579,-0.458 1.536,-0.689 2.876,-0.689l10.14,-0.001c1.341,-0 2.19,0.232 2.555,0.69c0.359,0.464 0.396,1.318 0.103,2.573l-1.693,7.265c-0.293,1.259 -0.73,2.119 -1.303,2.572c-0.579,0.459 -1.535,0.686 -2.875,0.686l-10.14,-0c-1.34,-0 -2.19,-0.227 -2.555,-0.686c-0.362,-0.453 -0.398,-1.313 -0.104,-2.572l1.693,-7.265Zm1.362,7.928l10.571,-0l2.034,-8.724l-10.572,-0l-2.033,8.724Zm16.613,2.595l3.213,-13.786l2.595,-0l4.552,8.333l8.294,-8.333l2.569,-0l-3.213,13.786l-2.974,-0l1.985,-8.515c0.038,-0.165 0.096,-0.374 0.177,-0.628c0.082,-0.254 0.178,-0.534 0.282,-0.845c-0.256,0.355 -0.476,0.649 -0.658,0.876c-0.183,0.232 -0.348,0.423 -0.484,0.57l-6.782,6.886l-0.642,0l-3.578,-6.913c-0.13,-0.262 -0.238,-0.507 -0.318,-0.739c-0.08,-0.226 -0.139,-0.453 -0.178,-0.667c-0.04,0.285 -0.079,0.547 -0.119,0.779c-0.042,0.235 -0.091,0.463 -0.141,0.681l-1.985,8.515l-2.595,-0Zm21.451,-0l3.213,-13.786l2.595,-0l4.553,8.333l8.294,-8.333l2.568,-0l-3.213,13.786l-2.974,-0l1.985,-8.515c0.039,-0.165 0.096,-0.374 0.178,-0.628c0.081,-0.254 0.178,-0.534 0.281,-0.845c-0.257,0.355 -0.476,0.649 -0.658,0.876c-0.183,0.232 -0.348,0.423 -0.484,0.57l-6.782,6.886l-0.641,0l-3.579,-6.913c-0.131,-0.262 -0.238,-0.507 -0.318,-0.739c-0.08,-0.226 -0.139,-0.453 -0.178,-0.667c-0.039,0.285 -0.079,0.547 -0.119,0.779c-0.042,0.235 -0.09,0.463 -0.141,0.681l-1.985,8.515l-2.595,-0Zm23.646,-10.523c0.292,-1.255 0.727,-2.109 1.303,-2.573c0.578,-0.458 1.536,-0.689 2.876,-0.689l10.14,-0.001c1.34,-0 2.189,0.232 2.554,0.69c0.36,0.464 0.396,1.318 0.104,2.573l-1.694,7.265c-0.293,1.259 -0.729,2.119 -1.302,2.572c-0.579,0.459 -1.536,0.686 -2.875,0.686l-10.14,-0c-1.341,-0 -2.191,-0.227 -2.556,-0.686c-0.361,-0.453 -0.397,-1.313 -0.103,-2.572l1.693,-7.265Zm1.361,7.928l10.572,-0l2.033,-8.724l-10.571,-0l-2.034,8.724Zm20.455,-0l4.148,-0c2.208,-0 3.85,-0.343 4.931,-1.028c1.082,-0.69 1.81,-1.825 2.178,-3.405c0.329,-1.412 0.195,-2.475 -0.402,-3.201c-0.597,-0.725 -1.642,-1.09 -3.138,-1.09l-5.684,-0l-2.033,8.724Zm-3.815,2.595l3.213,-13.786l8.872,-0c2.528,-0 4.335,0.592 5.423,1.772c1.082,1.184 1.371,2.862 0.865,5.035c-0.301,1.29 -0.838,2.448 -1.608,3.476c-0.77,1.033 -1.706,1.843 -2.811,2.435c-0.683,0.374 -1.494,0.645 -2.424,0.814c-0.93,0.17 -2.094,0.254 -3.482,0.254l-8.048,-0Zm25.764,-13.786l-2.608,11.191l9.138,-0l2.609,-11.191l3.196,-0l-2.454,10.528c-0.294,1.259 -0.73,2.119 -1.303,2.572c-0.579,0.459 -1.535,0.686 -2.875,0.686l-8.707,-0c-1.331,-0 -2.182,-0.227 -2.546,-0.686c-0.371,-0.453 -0.407,-1.313 -0.113,-2.572l2.453,-10.528l3.21,-0Zm12.866,13.786l3.213,-13.786l2.595,-0l4.551,8.333l8.295,-8.333l2.569,-0l-3.213,13.786l-2.974,-0l1.984,-8.515c0.039,-0.165 0.096,-0.374 0.178,-0.628c0.082,-0.254 0.178,-0.534 0.282,-0.845c-0.257,0.355 -0.477,0.649 -0.659,0.876c-0.183,0.232 -0.348,0.423 -0.484,0.57l-6.782,6.886l-0.641,0l-3.579,-6.913c-0.131,-0.262 -0.238,-0.507 -0.318,-0.739c-0.08,-0.226 -0.139,-0.453 -0.178,-0.667c-0.039,0.285 -0.079,0.547 -0.119,0.779c-0.042,0.235 -0.09,0.463 -0.141,0.681l-1.985,8.515l-2.594,-0Z"/><path d="M65.198,12.572c27.206,-14.45 55.06,-15.576 62.001,-2.505c4.746,8.937 -1.483,22.256 -14.594,34.407l-1.639,0.044c10.987,-10.904 16.038,-22.35 11.924,-30.095c-6.467,-12.18 -33.211,-10.714 -59.528,3.264c-16.353,8.685 -23.525,14.967 -34.432,29.032c5.31,-10.986 18.642,-24.026 36.268,-34.147"/><path d="M59.775,68.46l-0.574,-1.368l0.667,-0l0.47,0.886l0.612,-0.886l0.721,-0l-1.036,1.368l-0.86,0Z"/></g></svg>