<svg width="200" height="150" viewBox="0 0 200 150" fill="none" xmlns="http://www.w3.org/2000/svg">
<path d="M200 75.0026C200.001 71.7185 199.355 68.4664 198.099 65.432C196.843 62.3975 195.002 59.6401 192.68 57.3173C190.359 54.9944 187.602 53.1516 184.569 51.894C181.535 50.6363 178.283 49.9886 174.999 49.9876H39.969L55.1664 39.8666C57.4834 38.3216 60.2059 37.4968 62.9908 37.496H163.816L114.181 4.37789C113.934 4.20856 113.673 4.02512 113.423 3.87343C105.757 -1.29114 94.2499 -1.29114 86.5841 3.87343C86.3337 4.04276 86.0797 4.20503 85.8292 4.37789L10.9994 54.2809C9.34785 55.4124 7.83264 56.7311 6.48396 58.2107C-7.97965 74.3112 3.30902 99.94 25.0044 100.025H160.035L144.837 110.16C142.521 111.707 139.798 112.535 137.013 112.537H36.1873L85.8257 145.627C86.0726 145.797 86.3301 145.963 86.5806 146.128C94.2463 151.293 105.754 151.293 113.419 146.128L114.174 145.627L188.997 95.7244C190.654 94.5911 192.174 93.27 193.527 91.7875C197.681 87.1833 199.985 81.2042 199.993 75.0026" fill="#00243F"/>
<path d="M32.9982 59.8405H38.5438L40.7521 81.1514L40.8827 82.887H41.0132L41.2742 80.9362L44.1775 59.8405H49.589L52.5347 80.8939L52.7957 82.887H52.8839L53.0568 81.1514L55.1769 59.8405H60.7648L56.5633 90.1647H49.8924L47.1196 71.9265L46.9468 69.8486H46.8621L46.6893 71.9265L43.9588 90.1647H36.8999L32.9982 59.8405Z" fill="white"/>
<path d="M68.5752 59.8405H63.0296V90.1612H68.5752V59.8405Z" fill="white"/>
<path d="M90.7292 90.1612V64.7335H86.6018V59.8405H100V64.7335H95.8797V90.1612H90.7292Z" fill="white"/>
<path d="M128.483 90.1612H118.002V59.8405H123.547V85.2682H128.483V90.1612Z" fill="white"/>
<path d="M161.968 90.1612H167.729L160.151 71.6513L167.598 59.8405H161.576L154.648 71.4573V59.8405H149.102V90.1612H154.648V79.4299L156.708 76.6324L161.968 90.1612Z" fill="white"/>
<path d="M184.863 59.8405L178.407 79.3346L178.495 90.1647H172.907L172.992 79.3346L166.54 59.8405H172.473L175.765 72.2722L178.971 59.8405H184.863Z" fill="white"/>
<path d="M102.367 90.1612V59.8405H114.788V64.737H107.599V71.5807H114.178V76.4313H107.599V85.2682H114.809V90.1612H102.367Z" fill="white"/>
<path d="M31.0086 78.5726C30.7048 77.5256 30.1682 76.5608 29.4388 75.7505C28.4279 74.753 27.3003 73.8812 26.0804 73.1541L23.1347 71.4643C22.4742 71.1278 21.9425 70.5837 21.6214 69.9156C21.3113 69.1087 21.1719 68.2463 21.2121 67.3827C21.197 66.7899 21.2551 66.1975 21.385 65.6189C21.4788 65.2048 21.7163 64.8373 22.0553 64.5817C22.49 64.3127 22.999 64.1892 23.5087 64.229C24.3741 64.229 24.9797 64.4818 25.3255 64.9874C25.7567 65.7381 25.9773 66.5912 25.964 67.4568C25.9992 68.0671 26.0592 68.9067 26.0663 69.5417L31.4002 68.7656C31.4002 66.5714 31.1556 64.8169 30.6664 63.5023C30.2229 62.2474 29.3609 61.1836 28.2252 60.4896C27.0823 59.7982 25.516 59.4525 23.5263 59.4525C21.6178 59.4525 20.1644 59.8052 19.025 60.3908C17.9263 60.9382 17.0422 61.8372 16.5132 62.9449C15.9385 64.2465 15.6636 65.6607 15.7089 67.0829C15.6711 68.466 15.8098 69.8482 16.1217 71.1962C16.392 72.1699 16.893 73.0641 17.5821 73.8032C18.4648 74.7446 19.4796 75.5527 20.5948 76.202L23.8861 78.1528C24.5706 78.4938 25.1227 79.0521 25.456 79.7403C25.7735 80.3753 25.9322 81.3595 25.9322 82.6859C25.9322 83.8113 25.7664 84.6156 25.4348 85.0918C25.1032 85.5681 24.4753 85.7974 23.551 85.7974C22.6268 85.7974 21.9988 85.4869 21.6672 84.8661C21.336 84.1721 21.1397 83.4215 21.0887 82.6542C21.0887 82.5448 21.064 82.432 21.0569 82.3226C21.0252 81.6947 20.9229 80.7669 20.9511 80.1001C20.9511 80.1001 20.9511 80.0754 20.9511 80.0613L15.4867 80.8163C15.4867 83.0693 15.7395 84.8884 16.2451 86.2736C16.6978 87.5863 17.5835 88.706 18.7569 89.4486C19.9281 90.1859 21.4767 90.5527 23.4134 90.5527C25.2902 90.5527 26.7542 90.2882 27.9501 89.6955C29.1163 89.1372 30.0571 88.1976 30.617 87.0321C31.1932 85.8562 31.4813 84.3275 31.4813 82.4461C31.5214 81.1356 31.3595 79.8268 31.0015 78.5656" fill="white"/>
<path d="M145.761 78.5727C145.458 77.5256 144.921 76.5608 144.192 75.7505C143.181 74.753 142.053 73.8812 140.833 73.1541L137.888 71.4644C137.227 71.129 136.696 70.5844 136.378 69.9157C136.065 69.1095 135.924 68.2467 135.965 67.3828C135.95 66.79 136.008 66.1975 136.138 65.6189C136.232 65.2049 136.469 64.8374 136.808 64.5818C137.243 64.3128 137.752 64.1892 138.262 64.229C139.127 64.229 139.733 64.4818 140.078 64.9875C140.51 65.7381 140.73 66.5913 140.717 67.4569C140.752 68.0672 140.812 68.9068 140.819 69.5417L146.142 68.7974C146.142 66.6032 145.898 64.8487 145.409 63.5341C144.963 62.2781 144.099 61.2141 142.96 60.5214C141.817 59.83 140.251 59.4843 138.262 59.4843C136.353 59.4843 134.9 59.837 133.76 60.4226C132.662 60.97 131.777 61.869 131.248 62.9767C130.674 64.2783 130.399 65.6925 130.444 67.1147C130.406 68.4978 130.545 69.88 130.857 71.228C131.127 72.2017 131.628 73.0959 132.317 73.835C133.207 74.7715 134.227 75.5737 135.348 76.2162L138.639 78.167C139.323 78.508 139.876 79.0663 140.209 79.7545C140.526 80.3895 140.685 81.3737 140.685 82.7001C140.685 83.8254 140.519 84.6298 140.188 85.106C139.856 85.5822 139.228 85.8115 138.304 85.8115C137.38 85.8115 136.752 85.5011 136.42 84.8802C136.089 84.1862 135.893 83.4356 135.842 82.6684C135.842 82.559 135.817 82.4461 135.81 82.3368C135.778 81.7088 135.676 80.781 135.704 80.1143C135.704 80.1143 135.704 80.0896 135.704 80.0755L130.24 80.8304C130.24 83.0835 130.492 84.9026 130.998 86.2878C131.451 87.6005 132.336 88.7202 133.51 89.4627C134.681 90.2 136.23 90.5669 138.166 90.5669C140.043 90.5669 141.507 90.3023 142.703 89.7097C143.869 89.1513 144.81 88.2117 145.37 87.0462C145.946 85.8703 146.234 84.3417 146.234 82.4602C146.274 81.1498 146.112 79.841 145.754 78.5797" fill="white"/>
<path d="M72.4098 90.1612V59.8405H84.2347V64.737H77.6414V71.5807H84.2523V76.4313H77.6414V85.2682H84.2523V90.1612H72.4098Z" fill="white"/>
</svg>
