<svg xmlns="http://www.w3.org/2000/svg" width="316.822" height="72.608"><defs><clipPath id="a"><path data-name="Rectangle 4255" fill="none" d="M0 0h316.822v72.608H0z"/></clipPath></defs><g data-name="Group 2189"><g data-name="Group 2184" clip-path="url(#a)" fill="#1d1d1b"><path data-name="Path 5800" d="M10.816 7.854H0v27.432h4.623V24.235h6.193c5.447 0 8.972-3.212 8.972-8.188s-3.525-8.19-8.972-8.19M10.5 20.24H4.623v-8.386H10.5c2.9 0 4.623 1.566 4.623 4.193S13.4 20.24 10.5 20.24"/><path data-name="Path 5801" d="M27.442 19.298v-3.761H23.17v19.749h4.272v-7.367c0-6.113 2.547-8.7 5.447-8.7a6.579 6.579 0 012.545.47l.237-4.114a6.45 6.45 0 00-2.2-.353 7.06 7.06 0 00-6.033 4.075"/><path data-name="Path 5802" d="M47.042 15.224a9.817 9.817 0 00-10.188 10.187 10.187 10.187 0 1020.374 0 9.836 9.836 0 00-10.186-10.187m0 16.652c-3.526 0-5.877-2.663-5.877-6.466s2.351-6.465 5.877-6.465c3.488 0 5.877 2.664 5.877 6.465s-2.39 6.469-5.877 6.469"/><path data-name="Path 5803" d="M64.179 20.551c0-1.292 1.175-2.037 3.056-2.037a4.221 4.221 0 014.155 3.056l3.525-1.488c-.861-2.9-4-4.859-7.719-4.859-4.271 0-6.974 2.312-6.974 5.409 0 7.482 11.011 4.7 11.011 8.971 0 1.412-1.372 2.587-3.411 2.587a5 5 0 01-4.935-3.879l-3.53 1.488a8.492 8.492 0 008.464 5.8c4.468 0 7.447-2.624 7.447-6.033 0-8.112-11.09-5.212-11.09-9.014"/><path data-name="Path 5804" d="M87.385 31.799c-1.607 0-2.705-1.019-2.705-2.978v-9.64h5.1v-3.645h-5.1V9.659h-4.272v5.877h-3.446v3.645h3.446v9.875c0 4.505 2.782 6.543 6.5 6.543a10.14 10.14 0 003.136-.47l-.274-3.8a5.8 5.8 0 01-2.39.47"/><path data-name="Path 5805" d="M101.578 13.343l4.505-5.8h-3.214l-3.056 3.213-3.1-3.213H93.5l4.505 5.8z"/><path data-name="Path 5806" d="M97.934 19.298v-3.761h-4.272v19.749h4.272v-7.367c0-6.113 2.547-8.7 5.447-8.7a6.574 6.574 0 012.544.47l.237-4.114a6.45 6.45 0 00-2.2-.353 7.061 7.061 0 00-6.033 4.075"/><path data-name="Path 5807" d="M116.983 15.224c-6.269 0-9.639 4.859-9.639 10.187s3.567 10.188 9.836 10.188c4.624 0 7.993-2.193 9.052-5.994l-4.035-1.018c-.511 2.155-2.351 3.369-4.94 3.369-3.132 0-5.327-2.116-5.721-5.525h15.089c.039-.353.076-1.175.076-1.763 0-4.821-3.368-9.444-9.718-9.444m-5.248 7.955c.626-2.939 2.547-4.584 5.248-4.584a4.816 4.816 0 015.177 4.584z"/><path data-name="Path 5808" d="M145.013 18.006a7.476 7.476 0 00-6.033-2.782c-5.957 0-9.365 4.232-9.365 10.187s3.408 10.188 9.442 10.188c2.625 0 5.015-1.174 5.956-2.82v2.512h4.272V7.544h-4.272zm-5.407 13.87c-3.445 0-5.721-2.586-5.721-6.466 0-3.917 2.276-6.465 5.721-6.465s5.721 2.547 5.721 6.465c0 3.88-2.271 6.466-5.721 6.466"/><path data-name="Path 5809" d="M165.126 15.224a7.545 7.545 0 00-6.506 3.6v-3.288h-4.268v19.75h4.268v-8.659c0-4.741 2-7.564 5.331-7.564a3.869 3.869 0 014.037 4.193v12.03h4.269V22.279a6.725 6.725 0 00-7.131-7.053"/><path data-name="Rectangle 4254" d="M177.286 15.537h4.272v19.749h-4.272z"/><path data-name="Path 5810" d="M177.369 13.343h3.057l4.661-5.8h-5.093z"/><path data-name="Path 5811" d="M230.023 49.701a6.08 6.08 0 003.446-5.368c0-4.506-3.446-7.054-8.541-7.054h-10.423v27.428h10.893c5.721 0 9.367-3.017 9.367-8.073a6.957 6.957 0 00-4.741-6.934m-10.934-8.661h5.525c2.977 0 4.467 1.253 4.467 3.6 0 2.312-1.49 3.566-4.428 3.566h-5.564zm5.759 19.631h-5.759v-8.5h5.759c3.685 0 5.447 1.489 5.447 4.271s-1.762 4.232-5.447 4.232"/><path data-name="Path 5812" d="M247.312 44.645c-6.269 0-9.638 4.859-9.638 10.188s3.567 10.187 9.836 10.187c4.624 0 7.993-2.193 9.052-5.994l-4.036-1.014c-.511 2.155-2.351 3.369-4.94 3.369-3.133 0-5.327-2.116-5.721-5.525h15.088c.038-.353.077-1.175.077-1.763 0-4.821-3.368-9.444-9.718-9.444m-5.248 7.954c.626-2.939 2.547-4.584 5.248-4.584a4.816 4.816 0 015.172 4.584z"/><path data-name="Path 5813" d="M269.973 61.298c-3.373 0-5.606-2.548-5.606-6.466s2.194-6.466 5.606-6.466a4.555 4.555 0 014.741 3.761l4.151-.822c-.663-4.075-4.151-6.66-9.01-6.66-5.918 0-9.913 4.113-9.913 10.187s3.995 10.188 9.913 10.188c4.818 0 8.229-2.469 9.052-6.582l-4.192-.824a4.483 4.483 0 01-4.741 3.684"/><path data-name="Path 5814" d="M271.542 42.764l4.505-5.8h-3.214l-3.056 3.213-3.1-3.213h-3.213l4.505 5.8z"/><path data-name="Path 5815" d="M289.265 59.731l-4.9-14.773h-4.349l7.207 19.749h4.117l7.21-19.749h-4.39z"/><path data-name="Path 5816" d="M308.357 44.645c-4.192 0-7.561 2.547-8.19 6.425l3.842.706a4.079 4.079 0 014.348-3.764c2.587 0 4.273 1.49 4.273 3.92v.28l-3.723.391c-6.072.627-9.09 2.7-9.09 6.584 0 3.369 2.7 5.837 6.62 5.837a7.139 7.139 0 006.193-3.33v3.018h4.192v-12.31c0-4.937-3.449-7.757-8.465-7.757m4.273 11.56c-.038 3.213-2 5.523-5.328 5.523-2 0-3.293-1.1-3.293-2.663 0-1.725 1.647-2.9 4.86-3.253l3.761-.431z"/><path data-name="Path 5817" d="M208.886 0l-9.3 28.628a7.772 7.772 0 00-4.759 14.645L185.524 71.9l2.177.707 9.3-28.627a7.772 7.772 0 004.757-14.644L211.064.708z"/></g></g></svg>